<svg width="238" height="85" viewBox="0 0 238 85" fill="none" xmlns="http://www.w3.org/2000/svg">
<path d="M38.4541 9.98V39H33.1541V21.18C33.1541 20.8067 33.1607 20.4067 33.1741 19.98C33.2007 19.5533 33.2407 19.12 33.2941 18.68L24.9941 34.42C24.5407 35.2867 23.8407 35.72 22.8941 35.72H22.0541C21.5874 35.72 21.1741 35.6133 20.8141 35.4C20.4541 35.1733 20.1674 34.8467 19.9541 34.42L11.6141 18.62C11.6541 19.0867 11.6874 19.54 11.7141 19.98C11.7407 20.4067 11.7541 20.8067 11.7541 21.18V39H6.45406V9.98H11.0141C11.2674 9.98 11.4941 9.98667 11.6941 10C11.8941 10.0133 12.0674 10.0533 12.2141 10.12C12.3741 10.1733 12.5141 10.2667 12.6341 10.4C12.7674 10.52 12.8941 10.6933 13.0141 10.92L21.1341 26.4C21.3874 26.8667 21.6207 27.3467 21.8341 27.84C22.0607 28.3333 22.2741 28.84 22.4741 29.36C22.6741 28.8267 22.8807 28.3067 23.0941 27.8C23.3207 27.2933 23.5607 26.8067 23.8141 26.34L31.8741 10.92C31.9941 10.6933 32.1207 10.52 32.2541 10.4C32.3874 10.2667 32.5274 10.1733 32.6741 10.12C32.8341 10.0533 33.0074 10.0133 33.1941 10C33.3941 9.98667 33.6274 9.98 33.8941 9.98H38.4541ZM52.4159 18.06C53.9626 18.06 55.3693 18.3067 56.6359 18.8C57.9026 19.2933 58.9893 20 59.8959 20.92C60.8026 21.8267 61.5026 22.9333 61.9959 24.24C62.4893 25.5467 62.7359 27.02 62.7359 28.66C62.7359 30.3 62.4893 31.78 61.9959 33.1C61.5026 34.4067 60.8026 35.52 59.8959 36.44C58.9893 37.36 57.9026 38.0667 56.6359 38.56C55.3693 39.0533 53.9626 39.3 52.4159 39.3C50.8559 39.3 49.4359 39.0533 48.1559 38.56C46.8893 38.0667 45.8026 37.36 44.8959 36.44C43.9893 35.52 43.2826 34.4067 42.7759 33.1C42.2826 31.78 42.0359 30.3 42.0359 28.66C42.0359 27.02 42.2826 25.5467 42.7759 24.24C43.2826 22.9333 43.9893 21.8267 44.8959 20.92C45.8026 20 46.8893 19.2933 48.1559 18.8C49.4359 18.3067 50.8559 18.06 52.4159 18.06ZM52.4159 35.16C53.9893 35.16 55.1559 34.62 55.9159 33.54C56.6759 32.4467 57.0559 30.8267 57.0559 28.68C57.0559 26.5467 56.6759 24.94 55.9159 23.86C55.1559 22.7667 53.9893 22.22 52.4159 22.22C50.8026 22.22 49.6159 22.7667 48.8559 23.86C48.0959 24.94 47.7159 26.5467 47.7159 28.68C47.7159 30.8267 48.0959 32.4467 48.8559 33.54C49.6159 34.62 50.8026 35.16 52.4159 35.16ZM85.0819 18.38V39H79.5619V27.66C79.5619 27.3533 79.5752 27.0067 79.6019 26.62C79.6419 26.22 79.6952 25.8267 79.7619 25.44C79.4552 26.1067 79.1419 26.6733 78.8219 27.14C78.7952 27.1667 78.6752 27.34 78.4619 27.66C78.2485 27.98 77.9685 28.3933 77.6219 28.9C77.2752 29.3933 76.8819 29.9533 76.4419 30.58C76.0152 31.2067 75.5752 31.8467 75.1219 32.5C74.0685 34.02 72.8752 35.7467 71.5419 37.68C71.4352 37.84 71.3085 38 71.1619 38.16C71.0285 38.3067 70.8752 38.4467 70.7019 38.58C70.5419 38.7133 70.3685 38.82 70.1819 38.9C69.9952 38.98 69.7952 39.02 69.5819 39.02H66.2019V18.4H71.7219V29.74C71.7219 30.06 71.7019 30.42 71.6619 30.82C71.6219 31.22 71.5685 31.6133 71.5019 32C71.6619 31.6533 71.8219 31.3333 71.9819 31.04C72.1419 30.7467 72.3019 30.4867 72.4619 30.26C72.4752 30.2333 72.5885 30.06 72.8019 29.74C73.0285 29.42 73.3152 29.0133 73.6619 28.52C74.0085 28.0133 74.3952 27.4467 74.8219 26.82C75.2619 26.1933 75.7085 25.5533 76.1619 24.9C77.2152 23.38 78.4152 21.6533 79.7619 19.72C79.9619 19.4 80.2285 19.1 80.5619 18.82C80.9085 18.5267 81.2952 18.38 81.7219 18.38H85.0819ZM108.471 18.06C110.017 18.06 111.424 18.3067 112.691 18.8C113.957 19.2933 115.044 20 115.951 20.92C116.857 21.8267 117.557 22.9333 118.051 24.24C118.544 25.5467 118.791 27.02 118.791 28.66C118.791 30.3 118.544 31.78 118.051 33.1C117.557 34.4067 116.857 35.52 115.951 36.44C115.044 37.36 113.957 38.0667 112.691 38.56C111.424 39.0533 110.017 39.3 108.471 39.3C106.911 39.3 105.491 39.0533 104.211 38.56C102.944 38.0667 101.857 37.36 100.951 36.44C100.044 35.52 99.3373 34.4067 98.8306 33.1C98.3373 31.78 98.0906 30.3 98.0906 28.66C98.0906 27.02 98.3373 25.5467 98.8306 24.24C99.3373 22.9333 100.044 21.8267 100.951 20.92C101.857 20 102.944 19.2933 104.211 18.8C105.491 18.3067 106.911 18.06 108.471 18.06ZM108.471 35.16C110.044 35.16 111.211 34.62 111.971 33.54C112.731 32.4467 113.111 30.8267 113.111 28.68C113.111 26.5467 112.731 24.94 111.971 23.86C111.211 22.7667 110.044 22.22 108.471 22.22C106.857 22.22 105.671 22.7667 104.911 23.86C104.151 24.94 103.771 26.5467 103.771 28.68C103.771 30.8267 104.151 32.4467 104.911 33.54C105.671 34.62 106.857 35.16 108.471 35.16ZM144.357 34.98V44.24C144.357 44.7333 144.21 45.12 143.917 45.4C143.623 45.6933 143.25 45.84 142.797 45.84H139.337V39H122.257V18.38H127.777V34.98H135.057V18.38H140.557V34.98H144.357ZM159.985 26.26C159.985 25.6867 159.905 25.14 159.745 24.62C159.598 24.1 159.358 23.64 159.025 23.24C158.692 22.84 158.272 22.5267 157.765 22.3C157.258 22.06 156.652 21.94 155.945 21.94C154.625 21.94 153.592 22.3133 152.845 23.06C152.098 23.8067 151.612 24.8733 151.385 26.26H159.985ZM151.305 29.54C151.478 31.4733 152.025 32.8867 152.945 33.78C153.878 34.6733 155.092 35.12 156.585 35.12C157.345 35.12 157.998 35.0333 158.545 34.86C159.105 34.6733 159.592 34.4733 160.005 34.26C160.432 34.0333 160.812 33.8333 161.145 33.66C161.492 33.4733 161.832 33.38 162.165 33.38C162.592 33.38 162.925 33.54 163.165 33.86L164.765 35.86C164.178 36.54 163.532 37.1067 162.825 37.56C162.118 38 161.385 38.3533 160.625 38.62C159.865 38.8733 159.098 39.0467 158.325 39.14C157.552 39.2467 156.805 39.3 156.085 39.3C154.645 39.3 153.298 39.0667 152.045 38.6C150.805 38.12 149.718 37.42 148.785 36.5C147.865 35.5667 147.138 34.4133 146.605 33.04C146.072 31.6667 145.805 30.0733 145.805 28.26C145.805 26.86 146.032 25.54 146.485 24.3C146.952 23.06 147.618 21.98 148.485 21.06C149.352 20.14 150.405 19.4133 151.645 18.88C152.885 18.3333 154.285 18.06 155.845 18.06C157.165 18.06 158.378 18.2733 159.485 18.7C160.605 19.1133 161.565 19.72 162.365 20.52C163.178 21.32 163.805 22.3067 164.245 23.48C164.698 24.64 164.925 25.9667 164.925 27.46C164.925 27.8733 164.905 28.2133 164.865 28.48C164.825 28.7467 164.758 28.96 164.665 29.12C164.572 29.28 164.445 29.3933 164.285 29.46C164.125 29.5133 163.918 29.54 163.665 29.54H151.305ZM186.65 18.38V39H181.15V30.06H173.87V39H168.35V18.38H173.87V26.04H181.15V18.38H186.65ZM203.481 19.8C203.748 19.3867 204.108 19.0467 204.561 18.78C205.028 18.5133 205.514 18.38 206.021 18.38H210.381L205.781 25.96C205.448 26.52 205.108 26.9667 204.761 27.3C204.414 27.62 203.994 27.8733 203.501 28.06C204.181 28.2733 204.734 28.58 205.161 28.98C205.588 29.38 205.968 29.8867 206.301 30.5L210.881 39H207.081C206.601 39 206.174 38.96 205.801 38.88C205.441 38.8 205.114 38.68 204.821 38.52C204.541 38.36 204.294 38.1667 204.081 37.94C203.868 37.7133 203.668 37.4467 203.481 37.14L200.841 31.68C200.614 31.2 200.294 30.8467 199.881 30.62C199.468 30.38 199.001 30.26 198.481 30.26H196.761V39H191.241V18.38H196.761V26.72H198.201C198.761 26.72 199.194 26.6267 199.501 26.44C199.821 26.24 200.094 25.9267 200.321 25.5L203.481 19.8ZM232.269 18.38V39H226.749V27.66C226.749 27.3533 226.763 27.0067 226.789 26.62C226.829 26.22 226.883 25.8267 226.949 25.44C226.643 26.1067 226.329 26.6733 226.009 27.14C225.983 27.1667 225.863 27.34 225.649 27.66C225.436 27.98 225.156 28.3933 224.809 28.9C224.463 29.3933 224.069 29.9533 223.629 30.58C223.203 31.2067 222.763 31.8467 222.309 32.5C221.256 34.02 220.063 35.7467 218.729 37.68C218.623 37.84 218.496 38 218.349 38.16C218.216 38.3067 218.063 38.4467 217.889 38.58C217.729 38.7133 217.556 38.82 217.369 38.9C217.183 38.98 216.983 39.02 216.769 39.02H213.389V18.4H218.909V29.74C218.909 30.06 218.889 30.42 218.849 30.82C218.809 31.22 218.756 31.6133 218.689 32C218.849 31.6533 219.009 31.3333 219.169 31.04C219.329 30.7467 219.489 30.4867 219.649 30.26C219.663 30.2333 219.776 30.06 219.989 29.74C220.216 29.42 220.503 29.0133 220.849 28.52C221.196 28.0133 221.583 27.4467 222.009 26.82C222.449 26.1933 222.896 25.5533 223.349 24.9C224.403 23.38 225.603 21.6533 226.949 19.72C227.149 19.4 227.416 19.1 227.749 18.82C228.096 18.5267 228.483 18.38 228.909 18.38H232.269Z" fill="white"/>
<path d="M3 55.384L8.64119 51.5707C14.4348 47.6544 25.1007 48.0927 29.8851 52.4436C34.3712 56.5233 44.1584 57.2159 50.2035 53.8814L56.3864 50.4709C62.6839 46.9971 72.9053 47.7954 77.395 52.1117C81.8159 56.362 91.8246 57.2146 98.165 53.881L103.729 50.9557C111.395 46.9253 123.206 47.1847 130.325 51.5398L132.28 52.7358C138.932 56.8057 150.173 56.6831 156.557 52.471L158.556 51.1521C164.388 47.3043 174.835 47.5234 180.173 51.6055C185.84 55.9397 197.176 55.8172 202.676 51.4109C207.72 47.3697 217.822 46.82 223.993 50.2958L235 55.384" stroke="white" stroke-width="5" stroke-linecap="round"/>
<path d="M78.164 80H74.54V65.312H67.448V80H63.824V62.588H78.164V80ZM84.4691 76.736C84.7811 77.096 85.1171 77.348 85.4771 77.492C85.8451 77.636 86.2371 77.708 86.6531 77.708C87.0531 77.708 87.4171 77.632 87.7451 77.48C88.0731 77.328 88.3531 77.092 88.5851 76.772C88.8251 76.444 89.0091 76.028 89.1371 75.524C89.2651 75.02 89.3291 74.42 89.3291 73.724C89.3291 73.036 89.2731 72.452 89.1611 71.972C89.0571 71.492 88.9051 71.104 88.7051 70.808C88.5131 70.512 88.2771 70.3 87.9971 70.172C87.7171 70.036 87.4051 69.968 87.0611 69.968C86.4771 69.968 85.9851 70.084 85.5851 70.316C85.1931 70.54 84.8211 70.872 84.4691 71.312V76.736ZM84.2771 69.248C84.5251 68.976 84.7891 68.728 85.0691 68.504C85.3491 68.272 85.6491 68.076 85.9691 67.916C86.2891 67.748 86.6331 67.62 87.0011 67.532C87.3691 67.436 87.7691 67.388 88.2011 67.388C88.8651 67.388 89.4731 67.532 90.0251 67.82C90.5851 68.1 91.0651 68.512 91.4651 69.056C91.8651 69.592 92.1771 70.252 92.4011 71.036C92.6251 71.82 92.7371 72.716 92.7371 73.724C92.7371 74.652 92.6091 75.512 92.3531 76.304C92.1051 77.088 91.7491 77.768 91.2851 78.344C90.8211 78.92 90.2611 79.372 89.6051 79.7C88.9571 80.02 88.2331 80.18 87.4331 80.18C86.7611 80.18 86.1891 80.08 85.7171 79.88C85.2531 79.68 84.8371 79.408 84.4691 79.064V83.996H81.1571V67.628H83.1971C83.6131 67.628 83.8891 67.82 84.0251 68.204L84.2771 69.248ZM102.716 72.356C102.716 72.012 102.668 71.684 102.572 71.372C102.484 71.06 102.34 70.784 102.14 70.544C101.94 70.304 101.688 70.116 101.384 69.98C101.08 69.836 100.716 69.764 100.292 69.764C99.5 69.764 98.88 69.988 98.432 70.436C97.984 70.884 97.692 71.524 97.556 72.356H102.716ZM97.508 74.324C97.612 75.484 97.94 76.332 98.492 76.868C99.052 77.404 99.78 77.672 100.676 77.672C101.132 77.672 101.524 77.62 101.852 77.516C102.188 77.404 102.48 77.284 102.728 77.156C102.984 77.02 103.212 76.9 103.412 76.796C103.62 76.684 103.824 76.628 104.024 76.628C104.28 76.628 104.48 76.724 104.624 76.916L105.584 78.116C105.232 78.524 104.844 78.864 104.42 79.136C103.996 79.4 103.556 79.612 103.1 79.772C102.644 79.924 102.184 80.028 101.72 80.084C101.256 80.148 100.808 80.18 100.376 80.18C99.512 80.18 98.704 80.04 97.952 79.76C97.208 79.472 96.556 79.052 95.996 78.5C95.444 77.94 95.008 77.248 94.688 76.424C94.368 75.6 94.208 74.644 94.208 73.556C94.208 72.716 94.344 71.924 94.616 71.18C94.896 70.436 95.296 69.788 95.816 69.236C96.336 68.684 96.968 68.248 97.712 67.928C98.456 67.6 99.296 67.436 100.232 67.436C101.024 67.436 101.752 67.564 102.416 67.82C103.088 68.068 103.664 68.432 104.144 68.912C104.632 69.392 105.008 69.984 105.272 70.688C105.544 71.384 105.68 72.18 105.68 73.076C105.68 73.324 105.668 73.528 105.644 73.688C105.62 73.848 105.58 73.976 105.524 74.072C105.468 74.168 105.392 74.236 105.296 74.276C105.2 74.308 105.076 74.324 104.924 74.324H97.508ZM118.715 80H115.415V70.04H111.047V80H107.735V67.628H118.715V80ZM127.05 67.436C127.978 67.436 128.822 67.584 129.582 67.88C130.342 68.176 130.994 68.6 131.538 69.152C132.082 69.696 132.502 70.36 132.798 71.144C133.094 71.928 133.242 72.812 133.242 73.796C133.242 74.78 133.094 75.668 132.798 76.46C132.502 77.244 132.082 77.912 131.538 78.464C130.994 79.016 130.342 79.44 129.582 79.736C128.822 80.032 127.978 80.18 127.05 80.18C126.114 80.18 125.262 80.032 124.494 79.736C123.734 79.44 123.082 79.016 122.538 78.464C121.994 77.912 121.57 77.244 121.266 76.46C120.97 75.668 120.822 74.78 120.822 73.796C120.822 72.812 120.97 71.928 121.266 71.144C121.57 70.36 121.994 69.696 122.538 69.152C123.082 68.6 123.734 68.176 124.494 67.88C125.262 67.584 126.114 67.436 127.05 67.436ZM127.05 77.696C127.994 77.696 128.694 77.372 129.15 76.724C129.606 76.068 129.834 75.096 129.834 73.808C129.834 72.528 129.606 71.564 129.15 70.916C128.694 70.26 127.994 69.932 127.05 69.932C126.082 69.932 125.37 70.26 124.914 70.916C124.458 71.564 124.23 72.528 124.23 73.808C124.23 75.096 124.458 76.068 124.914 76.724C125.37 77.372 126.082 77.696 127.05 77.696ZM143.164 77.684V70.112H140.464C140.392 71.072 140.3 71.944 140.188 72.728C140.076 73.512 139.944 74.216 139.792 74.84C139.64 75.456 139.472 76 139.288 76.472C139.112 76.936 138.924 77.34 138.724 77.684H143.164ZM148.648 77.588V83.144C148.648 83.44 148.56 83.672 148.384 83.84C148.208 84.016 147.984 84.104 147.712 84.104H145.636V80H136.84V83.192C136.84 83.424 136.768 83.632 136.624 83.816C136.48 84.008 136.248 84.104 135.928 84.104H133.84V77.684H134.164C134.436 77.684 134.704 77.652 134.968 77.588C135.232 77.516 135.484 77.368 135.724 77.144C135.964 76.912 136.188 76.576 136.396 76.136C136.612 75.688 136.808 75.092 136.984 74.348C137.16 73.604 137.312 72.684 137.44 71.588C137.576 70.492 137.684 69.172 137.764 67.628H146.368V77.588H148.648ZM156.836 74.828C156.028 74.868 155.356 74.94 154.82 75.044C154.284 75.14 153.856 75.268 153.536 75.428C153.224 75.588 153 75.772 152.864 75.98C152.736 76.18 152.672 76.4 152.672 76.64C152.672 77.12 152.804 77.46 153.068 77.66C153.34 77.86 153.716 77.96 154.196 77.96C154.748 77.96 155.224 77.864 155.624 77.672C156.032 77.472 156.436 77.164 156.836 76.748V74.828ZM150.092 69.344C150.82 68.688 151.624 68.2 152.504 67.88C153.384 67.552 154.336 67.388 155.36 67.388C156.096 67.388 156.752 67.508 157.328 67.748C157.912 67.988 158.404 68.324 158.804 68.756C159.212 69.18 159.524 69.688 159.74 70.28C159.956 70.872 160.064 71.52 160.064 72.224V80H158.552C158.24 80 158 79.956 157.832 79.868C157.672 79.78 157.54 79.596 157.436 79.316L157.172 78.524C156.86 78.796 156.556 79.036 156.26 79.244C155.972 79.452 155.672 79.628 155.36 79.772C155.048 79.908 154.712 80.012 154.352 80.084C154 80.156 153.604 80.192 153.164 80.192C152.62 80.192 152.124 80.12 151.676 79.976C151.228 79.832 150.84 79.62 150.512 79.34C150.192 79.052 149.944 78.696 149.768 78.272C149.592 77.848 149.504 77.36 149.504 76.808C149.504 76.352 149.62 75.896 149.852 75.44C150.084 74.984 150.48 74.572 151.04 74.204C151.608 73.828 152.36 73.52 153.296 73.28C154.24 73.032 155.42 72.892 156.836 72.86V72.224C156.836 71.448 156.672 70.88 156.344 70.52C156.016 70.152 155.544 69.968 154.928 69.968C154.472 69.968 154.092 70.024 153.788 70.136C153.484 70.24 153.216 70.356 152.984 70.484C152.76 70.604 152.548 70.72 152.348 70.832C152.148 70.936 151.916 70.988 151.652 70.988C151.42 70.988 151.224 70.932 151.064 70.82C150.912 70.7 150.784 70.56 150.68 70.4L150.092 69.344ZM167.821 77.78C168.373 77.78 168.809 77.64 169.129 77.36C169.457 77.08 169.621 76.7 169.621 76.22C169.621 76.02 169.597 75.832 169.549 75.656C169.501 75.472 169.409 75.316 169.273 75.188C169.145 75.052 168.965 74.948 168.733 74.876C168.501 74.796 168.201 74.756 167.833 74.756H165.793V77.78H167.821ZM165.793 69.74V72.752H167.569C168.097 72.752 168.525 72.604 168.853 72.308C169.181 72.004 169.345 71.612 169.345 71.132C169.345 70.956 169.317 70.788 169.261 70.628C169.205 70.46 169.105 70.312 168.961 70.184C168.825 70.048 168.641 69.94 168.409 69.86C168.185 69.78 167.905 69.74 167.569 69.74H165.793ZM167.665 67.628C168.457 67.628 169.141 67.704 169.717 67.856C170.293 68.008 170.769 68.22 171.145 68.492C171.521 68.756 171.797 69.072 171.973 69.44C172.157 69.808 172.249 70.208 172.249 70.64C172.249 70.904 172.213 71.18 172.141 71.468C172.077 71.756 171.957 72.028 171.781 72.284C171.613 72.54 171.381 72.776 171.085 72.992C170.789 73.208 170.413 73.376 169.957 73.496C170.349 73.584 170.709 73.708 171.037 73.868C171.373 74.028 171.661 74.224 171.901 74.456C172.141 74.688 172.329 74.964 172.465 75.284C172.601 75.596 172.669 75.948 172.669 76.34C172.669 76.98 172.533 77.532 172.261 77.996C171.997 78.46 171.641 78.84 171.193 79.136C170.745 79.432 170.229 79.652 169.645 79.796C169.069 79.932 168.469 80 167.845 80H162.649V67.628H167.665ZM181.234 74.828C180.426 74.868 179.754 74.94 179.218 75.044C178.682 75.14 178.254 75.268 177.934 75.428C177.622 75.588 177.398 75.772 177.262 75.98C177.134 76.18 177.07 76.4 177.07 76.64C177.07 77.12 177.202 77.46 177.466 77.66C177.738 77.86 178.114 77.96 178.594 77.96C179.146 77.96 179.622 77.864 180.022 77.672C180.43 77.472 180.834 77.164 181.234 76.748V74.828ZM174.49 69.344C175.218 68.688 176.022 68.2 176.902 67.88C177.782 67.552 178.734 67.388 179.758 67.388C180.494 67.388 181.15 67.508 181.726 67.748C182.31 67.988 182.802 68.324 183.202 68.756C183.61 69.18 183.922 69.688 184.138 70.28C184.354 70.872 184.462 71.52 184.462 72.224V80H182.95C182.638 80 182.398 79.956 182.23 79.868C182.07 79.78 181.938 79.596 181.834 79.316L181.57 78.524C181.258 78.796 180.954 79.036 180.658 79.244C180.37 79.452 180.07 79.628 179.758 79.772C179.446 79.908 179.11 80.012 178.75 80.084C178.398 80.156 178.002 80.192 177.562 80.192C177.018 80.192 176.522 80.12 176.074 79.976C175.626 79.832 175.238 79.62 174.91 79.34C174.59 79.052 174.342 78.696 174.166 78.272C173.99 77.848 173.902 77.36 173.902 76.808C173.902 76.352 174.018 75.896 174.25 75.44C174.482 74.984 174.878 74.572 175.438 74.204C176.006 73.828 176.758 73.52 177.694 73.28C178.638 73.032 179.818 72.892 181.234 72.86V72.224C181.234 71.448 181.07 70.88 180.742 70.52C180.414 70.152 179.942 69.968 179.326 69.968C178.87 69.968 178.49 70.024 178.186 70.136C177.882 70.24 177.614 70.356 177.382 70.484C177.158 70.604 176.946 70.72 176.746 70.832C176.546 70.936 176.314 70.988 176.05 70.988C175.818 70.988 175.622 70.932 175.462 70.82C175.31 70.7 175.182 70.56 175.078 70.4L174.49 69.344ZM197.612 70.04H193.34V80H190.028V70.04H185.756V67.628H197.612V70.04ZM206.802 72.356C206.802 72.012 206.754 71.684 206.658 71.372C206.57 71.06 206.426 70.784 206.226 70.544C206.026 70.304 205.774 70.116 205.47 69.98C205.166 69.836 204.802 69.764 204.378 69.764C203.586 69.764 202.966 69.988 202.518 70.436C202.07 70.884 201.778 71.524 201.642 72.356H206.802ZM201.594 74.324C201.698 75.484 202.026 76.332 202.578 76.868C203.138 77.404 203.866 77.672 204.762 77.672C205.218 77.672 205.61 77.62 205.938 77.516C206.274 77.404 206.566 77.284 206.814 77.156C207.07 77.02 207.298 76.9 207.498 76.796C207.706 76.684 207.91 76.628 208.11 76.628C208.366 76.628 208.566 76.724 208.71 76.916L209.67 78.116C209.318 78.524 208.93 78.864 208.506 79.136C208.082 79.4 207.642 79.612 207.186 79.772C206.73 79.924 206.27 80.028 205.806 80.084C205.342 80.148 204.894 80.18 204.462 80.18C203.598 80.18 202.79 80.04 202.038 79.76C201.294 79.472 200.642 79.052 200.082 78.5C199.53 77.94 199.094 77.248 198.774 76.424C198.454 75.6 198.294 74.644 198.294 73.556C198.294 72.716 198.43 71.924 198.702 71.18C198.982 70.436 199.382 69.788 199.902 69.236C200.422 68.684 201.054 68.248 201.798 67.928C202.542 67.6 203.382 67.436 204.318 67.436C205.11 67.436 205.838 67.564 206.502 67.82C207.174 68.068 207.75 68.432 208.23 68.912C208.718 69.392 209.094 69.984 209.358 70.688C209.63 71.384 209.766 72.18 209.766 73.076C209.766 73.324 209.754 73.528 209.73 73.688C209.706 73.848 209.666 73.976 209.61 74.072C209.554 74.168 209.478 74.236 209.382 74.276C209.286 74.308 209.162 74.324 209.01 74.324H201.594ZM223.569 80H220.257V70.112H217.581C217.477 71.616 217.325 72.908 217.125 73.988C216.925 75.068 216.685 75.984 216.405 76.736C216.125 77.48 215.813 78.08 215.469 78.536C215.125 78.984 214.757 79.332 214.365 79.58C213.973 79.82 213.569 79.98 213.153 80.06C212.737 80.14 212.317 80.18 211.893 80.18C211.397 80.18 211.041 80.14 210.825 80.06C210.609 79.98 210.501 79.864 210.501 79.712V77.696H211.245C211.501 77.696 211.757 77.66 212.013 77.588C212.269 77.508 212.517 77.348 212.757 77.108C213.005 76.868 213.237 76.524 213.453 76.076C213.669 75.628 213.869 75.032 214.053 74.288C214.237 73.544 214.397 72.628 214.533 71.54C214.669 70.452 214.777 69.148 214.857 67.628H223.569V80ZM231.478 77.684C232.07 77.684 232.514 77.528 232.81 77.216C233.114 76.904 233.266 76.504 233.266 76.016C233.266 75.808 233.23 75.608 233.158 75.416C233.094 75.224 232.986 75.056 232.834 74.912C232.69 74.768 232.506 74.652 232.282 74.564C232.058 74.476 231.79 74.432 231.478 74.432H229.45V77.684H231.478ZM231.466 72.116C232.33 72.116 233.062 72.224 233.662 72.44C234.27 72.648 234.762 72.932 235.138 73.292C235.514 73.644 235.786 74.056 235.954 74.528C236.122 74.992 236.206 75.484 236.206 76.004C236.206 76.596 236.098 77.136 235.882 77.624C235.674 78.112 235.366 78.532 234.958 78.884C234.558 79.236 234.066 79.512 233.482 79.712C232.898 79.904 232.234 80 231.49 80H226.306V67.628H229.45V72.116H231.466Z" fill="#999999"/>
</svg>
