<svg width="238" height="85" viewBox="0 0 238 85" fill="none" xmlns="http://www.w3.org/2000/svg">
<path d="M38.4541 9.98V39H33.1541V21.18C33.1541 20.8067 33.1607 20.4067 33.1741 19.98C33.2007 19.5533 33.2407 19.12 33.2941 18.68L24.9941 34.42C24.5407 35.2867 23.8407 35.72 22.8941 35.72H22.0541C21.5874 35.72 21.1741 35.6133 20.8141 35.4C20.4541 35.1733 20.1674 34.8467 19.9541 34.42L11.6141 18.62C11.6541 19.0867 11.6874 19.54 11.7141 19.98C11.7407 20.4067 11.7541 20.8067 11.7541 21.18V39H6.45406V9.98H11.0141C11.2674 9.98 11.4941 9.98667 11.6941 10C11.8941 10.0133 12.0674 10.0533 12.2141 10.12C12.3741 10.1733 12.5141 10.2667 12.6341 10.4C12.7674 10.52 12.8941 10.6933 13.0141 10.92L21.1341 26.4C21.3874 26.8667 21.6207 27.3467 21.8341 27.84C22.0607 28.3333 22.2741 28.84 22.4741 29.36C22.6741 28.8267 22.8807 28.3067 23.0941 27.8C23.3207 27.2933 23.5607 26.8067 23.8141 26.34L31.8741 10.92C31.9941 10.6933 32.1207 10.52 32.2541 10.4C32.3874 10.2667 32.5274 10.1733 32.6741 10.12C32.8341 10.0533 33.0074 10.0133 33.1941 10C33.3941 9.98667 33.6274 9.98 33.8941 9.98H38.4541ZM52.4159 18.06C53.9626 18.06 55.3693 18.3067 56.6359 18.8C57.9026 19.2933 58.9893 20 59.8959 20.92C60.8026 21.8267 61.5026 22.9333 61.9959 24.24C62.4893 25.5467 62.7359 27.02 62.7359 28.66C62.7359 30.3 62.4893 31.78 61.9959 33.1C61.5026 34.4067 60.8026 35.52 59.8959 36.44C58.9893 37.36 57.9026 38.0667 56.6359 38.56C55.3693 39.0533 53.9626 39.3 52.4159 39.3C50.8559 39.3 49.4359 39.0533 48.1559 38.56C46.8893 38.0667 45.8026 37.36 44.8959 36.44C43.9893 35.52 43.2826 34.4067 42.7759 33.1C42.2826 31.78 42.0359 30.3 42.0359 28.66C42.0359 27.02 42.2826 25.5467 42.7759 24.24C43.2826 22.9333 43.9893 21.8267 44.8959 20.92C45.8026 20 46.8893 19.2933 48.1559 18.8C49.4359 18.3067 50.8559 18.06 52.4159 18.06ZM52.4159 35.16C53.9893 35.16 55.1559 34.62 55.9159 33.54C56.6759 32.4467 57.0559 30.8267 57.0559 28.68C57.0559 26.5467 56.6759 24.94 55.9159 23.86C55.1559 22.7667 53.9893 22.22 52.4159 22.22C50.8026 22.22 49.6159 22.7667 48.8559 23.86C48.0959 24.94 47.7159 26.5467 47.7159 28.68C47.7159 30.8267 48.0959 32.4467 48.8559 33.54C49.6159 34.62 50.8026 35.16 52.4159 35.16ZM85.0819 18.38V39H79.5619V27.66C79.5619 27.3533 79.5752 27.0067 79.6019 26.62C79.6419 26.22 79.6952 25.8267 79.7619 25.44C79.4552 26.1067 79.1419 26.6733 78.8219 27.14C78.7952 27.1667 78.6752 27.34 78.4619 27.66C78.2485 27.98 77.9685 28.3933 77.6219 28.9C77.2752 29.3933 76.8819 29.9533 76.4419 30.58C76.0152 31.2067 75.5752 31.8467 75.1219 32.5C74.0685 34.02 72.8752 35.7467 71.5419 37.68C71.4352 37.84 71.3085 38 71.1619 38.16C71.0285 38.3067 70.8752 38.4467 70.7019 38.58C70.5419 38.7133 70.3685 38.82 70.1819 38.9C69.9952 38.98 69.7952 39.02 69.5819 39.02H66.2019V18.4H71.7219V29.74C71.7219 30.06 71.7019 30.42 71.6619 30.82C71.6219 31.22 71.5685 31.6133 71.5019 32C71.6619 31.6533 71.8219 31.3333 71.9819 31.04C72.1419 30.7467 72.3019 30.4867 72.4619 30.26C72.4752 30.2333 72.5885 30.06 72.8019 29.74C73.0285 29.42 73.3152 29.0133 73.6619 28.52C74.0085 28.0133 74.3952 27.4467 74.8219 26.82C75.2619 26.1933 75.7085 25.5533 76.1619 24.9C77.2152 23.38 78.4152 21.6533 79.7619 19.72C79.9619 19.4 80.2285 19.1 80.5619 18.82C80.9085 18.5267 81.2952 18.38 81.7219 18.38H85.0819ZM108.471 18.06C110.017 18.06 111.424 18.3067 112.691 18.8C113.957 19.2933 115.044 20 115.951 20.92C116.857 21.8267 117.557 22.9333 118.051 24.24C118.544 25.5467 118.791 27.02 118.791 28.66C118.791 30.3 118.544 31.78 118.051 33.1C117.557 34.4067 116.857 35.52 115.951 36.44C115.044 37.36 113.957 38.0667 112.691 38.56C111.424 39.0533 110.017 39.3 108.471 39.3C106.911 39.3 105.491 39.0533 104.211 38.56C102.944 38.0667 101.857 37.36 100.951 36.44C100.044 35.52 99.3373 34.4067 98.8306 33.1C98.3373 31.78 98.0906 30.3 98.0906 28.66C98.0906 27.02 98.3373 25.5467 98.8306 24.24C99.3373 22.9333 100.044 21.8267 100.951 20.92C101.857 20 102.944 19.2933 104.211 18.8C105.491 18.3067 106.911 18.06 108.471 18.06ZM108.471 35.16C110.044 35.16 111.211 34.62 111.971 33.54C112.731 32.4467 113.111 30.8267 113.111 28.68C113.111 26.5467 112.731 24.94 111.971 23.86C111.211 22.7667 110.044 22.22 108.471 22.22C106.857 22.22 105.671 22.7667 104.911 23.86C104.151 24.94 103.771 26.5467 103.771 28.68C103.771 30.8267 104.151 32.4467 104.911 33.54C105.671 34.62 106.857 35.16 108.471 35.16ZM144.357 34.98V44.24C144.357 44.7333 144.21 45.12 143.917 45.4C143.623 45.6933 143.25 45.84 142.797 45.84H139.337V39H122.257V18.38H127.777V34.98H135.057V18.38H140.557V34.98H144.357ZM159.985 26.26C159.985 25.6867 159.905 25.14 159.745 24.62C159.598 24.1 159.358 23.64 159.025 23.24C158.692 22.84 158.272 22.5267 157.765 22.3C157.258 22.06 156.652 21.94 155.945 21.94C154.625 21.94 153.592 22.3133 152.845 23.06C152.098 23.8067 151.612 24.8733 151.385 26.26H159.985ZM151.305 29.54C151.478 31.4733 152.025 32.8867 152.945 33.78C153.878 34.6733 155.092 35.12 156.585 35.12C157.345 35.12 157.998 35.0333 158.545 34.86C159.105 34.6733 159.592 34.4733 160.005 34.26C160.432 34.0333 160.812 33.8333 161.145 33.66C161.492 33.4733 161.832 33.38 162.165 33.38C162.592 33.38 162.925 33.54 163.165 33.86L164.765 35.86C164.178 36.54 163.532 37.1067 162.825 37.56C162.118 38 161.385 38.3533 160.625 38.62C159.865 38.8733 159.098 39.0467 158.325 39.14C157.552 39.2467 156.805 39.3 156.085 39.3C154.645 39.3 153.298 39.0667 152.045 38.6C150.805 38.12 149.718 37.42 148.785 36.5C147.865 35.5667 147.138 34.4133 146.605 33.04C146.072 31.6667 145.805 30.0733 145.805 28.26C145.805 26.86 146.032 25.54 146.485 24.3C146.952 23.06 147.618 21.98 148.485 21.06C149.352 20.14 150.405 19.4133 151.645 18.88C152.885 18.3333 154.285 18.06 155.845 18.06C157.165 18.06 158.378 18.2733 159.485 18.7C160.605 19.1133 161.565 19.72 162.365 20.52C163.178 21.32 163.805 22.3067 164.245 23.48C164.698 24.64 164.925 25.9667 164.925 27.46C164.925 27.8733 164.905 28.2133 164.865 28.48C164.825 28.7467 164.758 28.96 164.665 29.12C164.572 29.28 164.445 29.3933 164.285 29.46C164.125 29.5133 163.918 29.54 163.665 29.54H151.305ZM186.65 18.38V39H181.15V30.06H173.87V39H168.35V18.38H173.87V26.04H181.15V18.38H186.65ZM203.481 19.8C203.748 19.3867 204.108 19.0467 204.561 18.78C205.028 18.5133 205.514 18.38 206.021 18.38H210.381L205.781 25.96C205.448 26.52 205.108 26.9667 204.761 27.3C204.414 27.62 203.994 27.8733 203.501 28.06C204.181 28.2733 204.734 28.58 205.161 28.98C205.588 29.38 205.968 29.8867 206.301 30.5L210.881 39H207.081C206.601 39 206.174 38.96 205.801 38.88C205.441 38.8 205.114 38.68 204.821 38.52C204.541 38.36 204.294 38.1667 204.081 37.94C203.868 37.7133 203.668 37.4467 203.481 37.14L200.841 31.68C200.614 31.2 200.294 30.8467 199.881 30.62C199.468 30.38 199.001 30.26 198.481 30.26H196.761V39H191.241V18.38H196.761V26.72H198.201C198.761 26.72 199.194 26.6267 199.501 26.44C199.821 26.24 200.094 25.9267 200.321 25.5L203.481 19.8ZM232.269 18.38V39H226.749V27.66C226.749 27.3533 226.763 27.0067 226.789 26.62C226.829 26.22 226.883 25.8267 226.949 25.44C226.643 26.1067 226.329 26.6733 226.009 27.14C225.983 27.1667 225.863 27.34 225.649 27.66C225.436 27.98 225.156 28.3933 224.809 28.9C224.463 29.3933 224.069 29.9533 223.629 30.58C223.203 31.2067 222.763 31.8467 222.309 32.5C221.256 34.02 220.063 35.7467 218.729 37.68C218.623 37.84 218.496 38 218.349 38.16C218.216 38.3067 218.063 38.4467 217.889 38.58C217.729 38.7133 217.556 38.82 217.369 38.9C217.183 38.98 216.983 39.02 216.769 39.02H213.389V18.4H218.909V29.74C218.909 30.06 218.889 30.42 218.849 30.82C218.809 31.22 218.756 31.6133 218.689 32C218.849 31.6533 219.009 31.3333 219.169 31.04C219.329 30.7467 219.489 30.4867 219.649 30.26C219.663 30.2333 219.776 30.06 219.989 29.74C220.216 29.42 220.503 29.0133 220.849 28.52C221.196 28.0133 221.583 27.4467 222.009 26.82C222.449 26.1933 222.896 25.5533 223.349 24.9C224.403 23.38 225.603 21.6533 226.949 19.72C227.149 19.4 227.416 19.1 227.749 18.82C228.096 18.5267 228.483 18.38 228.909 18.38H232.269Z" fill="white"/>
<path d="M3 55.384L8.64119 51.5707C14.4348 47.6544 25.1007 48.0927 29.8851 52.4436C34.3712 56.5233 44.1584 57.2159 50.2035 53.8814L56.3864 50.4709C62.6839 46.9971 72.9053 47.7954 77.395 52.1117C81.8159 56.362 91.8246 57.2146 98.165 53.881L103.729 50.9557C111.395 46.9253 123.206 47.1847 130.325 51.5398L132.28 52.7358C138.932 56.8057 150.173 56.6831 156.557 52.471L158.556 51.1521C164.388 47.3043 174.835 47.5234 180.173 51.6055C185.84 55.9397 197.176 55.8172 202.676 51.4109C207.72 47.3697 217.822 46.82 223.993 50.2958L235 55.384" stroke="white" stroke-width="5" stroke-linecap="round"/>
<path d="M62.98 73.388L61.096 68.06C60.984 67.78 60.864 67.452 60.736 67.076C60.616 66.692 60.496 66.28 60.376 65.84C60.264 66.288 60.144 66.704 60.016 67.088C59.896 67.472 59.78 67.804 59.668 68.084L57.796 73.388H62.98ZM69.016 80H66.232C65.92 80 65.664 79.928 65.464 79.784C65.272 79.632 65.128 79.44 65.032 79.208L63.856 75.884H56.908L55.732 79.208C55.66 79.408 55.52 79.592 55.312 79.76C55.112 79.92 54.86 80 54.556 80H51.748L58.54 62.588H62.224L69.016 80ZM78.6488 77.684V70.112H75.9488C75.8768 71.072 75.7848 71.944 75.6728 72.728C75.5608 73.512 75.4288 74.216 75.2768 74.84C75.1248 75.456 74.9568 76 74.7728 76.472C74.5968 76.936 74.4088 77.34 74.2088 77.684H78.6488ZM84.1328 77.588V83.144C84.1328 83.44 84.0448 83.672 83.8688 83.84C83.6928 84.016 83.4688 84.104 83.1968 84.104H81.1208V80H72.3248V83.192C72.3248 83.424 72.2528 83.632 72.1088 83.816C71.9648 84.008 71.7328 84.104 71.4128 84.104H69.3248V77.684H69.6488C69.9208 77.684 70.1888 77.652 70.4528 77.588C70.7168 77.516 70.9688 77.368 71.2088 77.144C71.4488 76.912 71.6728 76.576 71.8808 76.136C72.0968 75.688 72.2928 75.092 72.4688 74.348C72.6448 73.604 72.7968 72.684 72.9248 71.588C73.0608 70.492 73.1688 69.172 73.2488 67.628H81.8528V77.588H84.1328ZM100.42 67.616V80H97.4324V73.568C97.4324 73.28 97.4484 72.952 97.4804 72.584C97.5124 72.216 97.5564 71.868 97.6124 71.54L94.2524 77.864C94.0524 78.24 93.7444 78.428 93.3284 78.428H92.9684C92.5604 78.428 92.2484 78.24 92.0324 77.864L88.6364 71.516C88.7004 71.844 88.7484 72.196 88.7804 72.572C88.8204 72.94 88.8404 73.272 88.8404 73.568V80H85.8524V67.616H88.6124C88.8364 67.616 89.0604 67.664 89.2844 67.76C89.5084 67.856 89.7004 68.048 89.8604 68.336L92.4044 73.1C92.5404 73.356 92.6684 73.632 92.7884 73.928C92.9164 74.216 93.0364 74.512 93.1484 74.816C93.2524 74.512 93.3644 74.216 93.4844 73.928C93.6124 73.632 93.7444 73.356 93.8804 73.1L96.4124 68.336C96.5724 68.032 96.7644 67.836 96.9884 67.748C97.2124 67.66 97.4364 67.616 97.6604 67.616H100.42ZM114.477 67.628V80H111.165V73.196C111.165 73.012 111.173 72.804 111.189 72.572C111.213 72.332 111.245 72.096 111.285 71.864C111.101 72.264 110.913 72.604 110.721 72.884C110.705 72.9 110.633 73.004 110.505 73.196C110.377 73.388 110.209 73.636 110.001 73.94C109.793 74.236 109.557 74.572 109.293 74.948C109.037 75.324 108.773 75.708 108.501 76.1C107.869 77.012 107.153 78.048 106.353 79.208C106.289 79.304 106.213 79.4 106.125 79.496C106.045 79.584 105.953 79.668 105.849 79.748C105.753 79.828 105.649 79.892 105.537 79.94C105.425 79.988 105.305 80.012 105.177 80.012H103.149V67.64H106.461V74.444C106.461 74.636 106.449 74.852 106.425 75.092C106.401 75.332 106.369 75.568 106.329 75.8C106.425 75.592 106.521 75.4 106.617 75.224C106.713 75.048 106.809 74.892 106.905 74.756C106.913 74.74 106.981 74.636 107.109 74.444C107.245 74.252 107.417 74.008 107.625 73.712C107.833 73.408 108.065 73.068 108.321 72.692C108.585 72.316 108.853 71.932 109.125 71.54C109.757 70.628 110.477 69.592 111.285 68.432C111.405 68.24 111.565 68.06 111.765 67.892C111.973 67.716 112.205 67.628 112.461 67.628H114.477ZM128.215 67.628V80H124.915V74.636H120.547V80H117.235V67.628H120.547V72.224H124.915V67.628H128.215ZM142.298 67.628V80H138.986V73.196C138.986 73.012 138.994 72.804 139.01 72.572C139.034 72.332 139.066 72.096 139.106 71.864C138.922 72.264 138.734 72.604 138.542 72.884C138.526 72.9 138.454 73.004 138.326 73.196C138.198 73.388 138.03 73.636 137.822 73.94C137.614 74.236 137.378 74.572 137.114 74.948C136.858 75.324 136.594 75.708 136.322 76.1C135.69 77.012 134.974 78.048 134.174 79.208C134.11 79.304 134.034 79.4 133.946 79.496C133.866 79.584 133.774 79.668 133.67 79.748C133.574 79.828 133.47 79.892 133.358 79.94C133.246 79.988 133.126 80.012 132.998 80.012H130.97V67.64H134.282V74.444C134.282 74.636 134.27 74.852 134.246 75.092C134.222 75.332 134.19 75.568 134.15 75.8C134.246 75.592 134.342 75.4 134.438 75.224C134.534 75.048 134.63 74.892 134.726 74.756C134.734 74.74 134.802 74.636 134.93 74.444C135.066 74.252 135.238 74.008 135.446 73.712C135.654 73.408 135.886 73.068 136.142 72.692C136.406 72.316 136.674 71.932 136.946 71.54C137.578 70.628 138.298 69.592 139.106 68.432C139.226 68.24 139.386 68.06 139.586 67.892C139.794 67.716 140.026 67.628 140.282 67.628H142.298ZM154.032 70.388C153.936 70.516 153.84 70.616 153.744 70.688C153.648 70.752 153.512 70.784 153.336 70.784C153.176 70.784 153.02 70.74 152.868 70.652C152.724 70.556 152.556 70.456 152.364 70.352C152.172 70.24 151.944 70.14 151.68 70.052C151.416 69.956 151.088 69.908 150.696 69.908C150.2 69.908 149.768 70 149.4 70.184C149.04 70.36 148.74 70.616 148.5 70.952C148.26 71.288 148.08 71.696 147.96 72.176C147.848 72.656 147.792 73.196 147.792 73.796C147.792 75.06 148.044 76.028 148.548 76.7C149.06 77.372 149.756 77.708 150.636 77.708C150.94 77.708 151.2 77.684 151.416 77.636C151.64 77.58 151.832 77.512 151.992 77.432C152.16 77.352 152.304 77.264 152.424 77.168C152.544 77.072 152.656 76.984 152.76 76.904C152.872 76.824 152.98 76.76 153.084 76.712C153.196 76.656 153.32 76.628 153.456 76.628C153.712 76.628 153.912 76.724 154.056 76.916L155.004 78.116C154.652 78.524 154.276 78.864 153.876 79.136C153.476 79.4 153.06 79.612 152.628 79.772C152.204 79.924 151.772 80.028 151.332 80.084C150.892 80.148 150.456 80.18 150.023 80.18C149.264 80.18 148.544 80.04 147.864 79.76C147.184 79.472 146.588 79.056 146.076 78.512C145.564 77.968 145.156 77.3 144.852 76.508C144.556 75.716 144.408 74.812 144.408 73.796C144.408 72.892 144.54 72.052 144.804 71.276C145.068 70.5 145.456 69.828 145.968 69.26C146.48 68.692 147.112 68.248 147.864 67.928C148.624 67.6 149.5 67.436 150.492 67.436C151.436 67.436 152.264 67.588 152.976 67.892C153.688 68.196 154.328 68.636 154.896 69.212L154.032 70.388ZM167.432 70.04H163.161V80H159.849V70.04H155.577V67.628H167.432V70.04ZM172.368 76.736C172.68 77.096 173.016 77.348 173.376 77.492C173.744 77.636 174.136 77.708 174.552 77.708C174.952 77.708 175.316 77.632 175.644 77.48C175.972 77.328 176.252 77.092 176.484 76.772C176.724 76.444 176.908 76.028 177.036 75.524C177.164 75.02 177.228 74.42 177.228 73.724C177.228 73.036 177.172 72.452 177.06 71.972C176.956 71.492 176.804 71.104 176.604 70.808C176.412 70.512 176.176 70.3 175.896 70.172C175.616 70.036 175.304 69.968 174.96 69.968C174.376 69.968 173.884 70.084 173.484 70.316C173.092 70.54 172.72 70.872 172.368 71.312V76.736ZM172.176 69.248C172.424 68.976 172.688 68.728 172.968 68.504C173.248 68.272 173.548 68.076 173.868 67.916C174.188 67.748 174.532 67.62 174.9 67.532C175.268 67.436 175.668 67.388 176.1 67.388C176.764 67.388 177.372 67.532 177.924 67.82C178.484 68.1 178.964 68.512 179.364 69.056C179.764 69.592 180.076 70.252 180.299 71.036C180.523 71.82 180.635 72.716 180.635 73.724C180.635 74.652 180.508 75.512 180.252 76.304C180.004 77.088 179.648 77.768 179.184 78.344C178.72 78.92 178.16 79.372 177.504 79.7C176.856 80.02 176.132 80.18 175.332 80.18C174.66 80.18 174.088 80.08 173.616 79.88C173.152 79.68 172.736 79.408 172.368 79.064V83.996H169.056V67.628H171.096C171.512 67.628 171.788 67.82 171.924 68.204L172.176 69.248ZM189.234 74.828C188.426 74.868 187.754 74.94 187.218 75.044C186.682 75.14 186.254 75.268 185.934 75.428C185.622 75.588 185.398 75.772 185.262 75.98C185.134 76.18 185.07 76.4 185.07 76.64C185.07 77.12 185.202 77.46 185.466 77.66C185.738 77.86 186.114 77.96 186.594 77.96C187.146 77.96 187.622 77.864 188.022 77.672C188.43 77.472 188.834 77.164 189.234 76.748V74.828ZM182.49 69.344C183.218 68.688 184.022 68.2 184.902 67.88C185.782 67.552 186.734 67.388 187.758 67.388C188.494 67.388 189.15 67.508 189.726 67.748C190.31 67.988 190.802 68.324 191.202 68.756C191.61 69.18 191.922 69.688 192.138 70.28C192.354 70.872 192.462 71.52 192.462 72.224V80H190.95C190.638 80 190.398 79.956 190.23 79.868C190.07 79.78 189.938 79.596 189.834 79.316L189.57 78.524C189.258 78.796 188.954 79.036 188.658 79.244C188.37 79.452 188.07 79.628 187.758 79.772C187.446 79.908 187.11 80.012 186.75 80.084C186.398 80.156 186.002 80.192 185.562 80.192C185.018 80.192 184.522 80.12 184.074 79.976C183.626 79.832 183.238 79.62 182.91 79.34C182.59 79.052 182.342 78.696 182.166 78.272C181.99 77.848 181.902 77.36 181.902 76.808C181.902 76.352 182.018 75.896 182.25 75.44C182.482 74.984 182.878 74.572 183.438 74.204C184.006 73.828 184.758 73.52 185.694 73.28C186.638 73.032 187.818 72.892 189.234 72.86V72.224C189.234 71.448 189.07 70.88 188.742 70.52C188.414 70.152 187.942 69.968 187.326 69.968C186.87 69.968 186.49 70.024 186.186 70.136C185.882 70.24 185.614 70.356 185.382 70.484C185.158 70.604 184.946 70.72 184.746 70.832C184.546 70.936 184.314 70.988 184.05 70.988C183.818 70.988 183.622 70.932 183.462 70.82C183.31 70.7 183.182 70.56 183.078 70.4L182.49 69.344ZM205.612 70.04H201.34V80H198.028V70.04H193.756V67.628H205.612V70.04ZM212.534 67.436C213.462 67.436 214.306 67.584 215.066 67.88C215.826 68.176 216.478 68.6 217.022 69.152C217.566 69.696 217.986 70.36 218.282 71.144C218.578 71.928 218.726 72.812 218.726 73.796C218.726 74.78 218.578 75.668 218.282 76.46C217.986 77.244 217.566 77.912 217.022 78.464C216.478 79.016 215.826 79.44 215.066 79.736C214.306 80.032 213.462 80.18 212.534 80.18C211.598 80.18 210.746 80.032 209.978 79.736C209.218 79.44 208.566 79.016 208.022 78.464C207.478 77.912 207.054 77.244 206.75 76.46C206.454 75.668 206.306 74.78 206.306 73.796C206.306 72.812 206.454 71.928 206.75 71.144C207.054 70.36 207.478 69.696 208.022 69.152C208.566 68.6 209.218 68.176 209.978 67.88C210.746 67.584 211.598 67.436 212.534 67.436ZM212.534 77.696C213.478 77.696 214.178 77.372 214.634 76.724C215.09 76.068 215.318 75.096 215.318 73.808C215.318 72.528 215.09 71.564 214.634 70.916C214.178 70.26 213.478 69.932 212.534 69.932C211.566 69.932 210.854 70.26 210.398 70.916C209.942 71.564 209.714 72.528 209.714 73.808C209.714 75.096 209.942 76.068 210.398 76.724C210.854 77.372 211.566 77.696 212.534 77.696ZM224.118 76.736C224.43 77.096 224.766 77.348 225.126 77.492C225.494 77.636 225.886 77.708 226.302 77.708C226.702 77.708 227.066 77.632 227.394 77.48C227.722 77.328 228.002 77.092 228.234 76.772C228.474 76.444 228.658 76.028 228.786 75.524C228.914 75.02 228.978 74.42 228.978 73.724C228.978 73.036 228.922 72.452 228.81 71.972C228.706 71.492 228.554 71.104 228.354 70.808C228.162 70.512 227.926 70.3 227.646 70.172C227.366 70.036 227.054 69.968 226.71 69.968C226.126 69.968 225.634 70.084 225.234 70.316C224.842 70.54 224.47 70.872 224.118 71.312V76.736ZM223.926 69.248C224.174 68.976 224.438 68.728 224.718 68.504C224.998 68.272 225.298 68.076 225.618 67.916C225.938 67.748 226.282 67.62 226.65 67.532C227.018 67.436 227.418 67.388 227.85 67.388C228.514 67.388 229.122 67.532 229.674 67.82C230.234 68.1 230.714 68.512 231.114 69.056C231.514 69.592 231.826 70.252 232.049 71.036C232.273 71.82 232.385 72.716 232.385 73.724C232.385 74.652 232.258 75.512 232.002 76.304C231.754 77.088 231.398 77.768 230.934 78.344C230.47 78.92 229.91 79.372 229.254 79.7C228.606 80.02 227.882 80.18 227.082 80.18C226.41 80.18 225.838 80.08 225.366 79.88C224.902 79.68 224.486 79.408 224.118 79.064V83.996H220.806V67.628H222.846C223.262 67.628 223.538 67.82 223.674 68.204L223.926 69.248Z" fill="#999999"/>
</svg>
